<svg version="1.1" id="Capa_1" xmlns="http://www.w3.org/2000/svg" x="0" y="0" viewBox="0 0 480 480" xml:space="preserve"><style>.st0{fill:#fff}</style><path class="st0" d="M392 0H88C65.9 0 48 17.9 48 40v216c0 22.1 17.9 40 40 40h109.4L186 336h-26v16h160v-16h-26l-11.4-40H392c22.1 0 40-17.9 40-40V40c0-22.1-17.9-40-40-40zM202.6 336l11.4-40h52l11.4 40h-74.8zM416 256c0 13.3-10.7 24-24 24H88c-13.3 0-24-10.7-24-24v-16h352v16zm0-32H64V40c0-13.3 10.7-24 24-24h304c13.3 0 24 10.7 24 24v184zM304 368H80c-4.4 0-8 3.6-8 8v96c0 4.4 3.6 8 8 8h224c4.4 0 8-3.6 8-8v-96c0-4.4-3.6-8-8-8zm-8 96H88v-80h208v80z"/><path class="st0" d="M104 432h16v16h-16zm0-32h16v16h-16zm32 0h16v16h-16zm32 0h16v16h-16zm64 0h16v16h-16zm-32 0h16v16h-16zm64 32h16v16h-16zm0-32h16v16h-16zm-128 32h112v16H136zm232-64c-22.1 0-40 17.9-40 40v32c0 22.1 17.9 40 40 40s40-17.9 40-40v-32c0-22.1-17.9-40-40-40zm24 72c0 13.3-10.7 24-24 24s-24-10.7-24-24v-32c0-13.3 10.7-24 24-24s24 10.7 24 24v32z"/><path class="st0" d="M360 400h16v16h-16z"/><path transform="rotate(-74.032 239.947 128.14)" class="st0" d="M181.7 120.1h116.4v16H181.7z"/><path class="st0" d="M197.1 94.1l-10.2-12.3-48 40c-3.4 2.8-3.9 7.9-1 11.3.3.4.6.7 1 1l48 40 10.2-12.3-40.6-33.8 40.6-33.9zm145 28.8c-.3-.4-.6-.7-1-1l-48-40-10.2 12.3 40.6 33.9-40.6 33.9 10.2 12.3 48-40c3.4-3 3.9-8 1-11.4z"/></svg>