<svg version="1.1" id="Capa_1" xmlns="http://www.w3.org/2000/svg" x="0" y="0" viewBox="0 0 512 512" xml:space="preserve"><style>.st0{fill:#fff}</style><path class="st0" d="M256.1 346.4c-6.1-4.6-13.6-6.2-20.6-4.8-1.1-6.6-4.6-12.5-10-16.6-5.6-4.2-12.4-6-19.4-5.1-1.7.2-3.4.6-5 1.2-1.5-5.2-4.7-10-9.3-13.5-7.7-5.8-17.5-6.7-25.8-3.3-1.7-5-4.8-9.3-9-12.6-5.6-4.2-12.5-6-19.4-5.1-5.6.8-10.7 3.3-14.7 7.2L95.4 292l16.8-136.7 30.1 2h.5c2.8 0 5.4-1.6 6.7-4.1l11.3-22c2.9-5.6 9.3-8.4 15.4-6.7l16.8 4.6c4 1.1 8.1-1.2 9.2-5.2 1.1-4-1.2-8.1-5.2-9.2l-16.8-4.6c-12.9-3.6-26.6 2.5-32.7 14.4l-9 17.7-24.4-1.7.6-4.7c1.8-15-8.9-28.7-23.9-30.6L33 98.1c-4.1-.5-7.9 2.4-8.4 6.5s2.4 7.9 6.5 8.4l57.8 7.1c3.3.4 6.2 2.1 8.3 4.7s2.9 5.9 2.5 9.2L80.1 295.2c-.9 6.8-7.1 11.6-13.9 10.8l-57.8-7.1c-4.1-.5-7.9 2.4-8.4 6.5s2.4 7.9 6.5 8.4l57.8 7.1c1.1.1 2.3.2 3.4.2 10.1 0 19.3-5.6 24-14.2l20.5 1.4c-2.5 4.8-3.4 10.1-2.7 15.5 1 6.9 4.6 13.1 10.1 17.3 4.6 3.5 10.1 5.3 15.7 5.3 1.2 0 2.4-.1 3.6-.3h.2v.2c1 6.9 4.6 13.1 10.1 17.3 4.7 3.6 10.3 5.3 15.8 5.3 1.3 0 2.6-.1 3.9-.3.9 6.7 4.3 13.1 10.1 17.5 4.7 3.6 10.3 5.3 15.8 5.3 1.3 0 2.6-.1 3.8-.3v.3c1 6.9 4.6 13.1 10.1 17.3 4.6 3.5 10.1 5.3 15.7 5.3 1.2 0 2.4-.1 3.6-.3 6.9-1 13.1-4.5 17.3-10.1l15.5-20.5c9.1-11.5 6.8-28-4.7-36.7zm-119-15.2c-3 .4-5.9-.4-8.3-2.2-2.4-1.8-3.9-4.4-4.3-7.4s.4-5.9 2.2-8.3l5.7-7.5c1.8-2.4 4.4-3.9 7.4-4.3s5.9.4 8.3 2.2c2.4 1.8 3.9 4.4 4.3 7.4s-.4 5.9-2.2 8.3l-5.7 7.5c-1.9 2.4-4.5 3.9-7.4 4.3zm21.5 20.4c-2.4-1.8-3.9-4.4-4.3-7.4-.4-3 .4-5.9 2.2-8.3l5.7-7.5 5-6.7c2.2-2.9 5.5-4.4 8.9-4.4 2.3 0 4.7.7 6.7 2.3 4.9 3.7 5.9 10.7 2.2 15.6l-10.8 14.2c-3.7 5-10.7 5.9-15.6 2.2zm29.7 22.5c-2.4-1.8-3.9-4.4-4.3-7.4-.4-3 .4-5.9 2.2-8.3l10.8-14.2 3.9-5.2c1.8-2.4 4.4-3.9 7.4-4.3s5.9.4 8.3 2.2c4.9 3.7 5.9 10.7 2.2 15.6L203.9 372c-3.7 4.9-10.7 5.9-15.6 2.1zm60.9-.1l-15.5 20.5c-1.8 2.4-4.4 3.9-7.4 4.3s-5.9-.4-8.3-2.2-3.9-4.4-4.3-7.4c-.4-3 .4-5.9 2.2-8.3l14.7-19.4.8-1.1c1.8-2.4 4.4-3.9 7.4-4.3s5.9.4 8.3 2.2c4.9 3.8 5.8 10.8 2.1 15.7z"/><path class="st0" d="M511.9 305.4c-.5-4.1-4.2-7-8.4-6.5l-57.8 7.1c-6.8.8-13-4-13.9-10.8l-.6-4.8-.1-1.1-19-155.3c-.4-3.3.5-6.5 2.5-9.2 2-2.6 5-4.3 8.3-4.7l57.8-7.1c4.1-.5 7-4.2 6.5-8.4-.5-4.1-4.2-7-8.4-6.5l-57.8 7.1c-14.1 1.7-24.4 14-24.1 27.9l-14.6 1.8-45.1-25.4c-6.4-3.6-13.6-5.1-20.9-4.5l-13.6 1.3c-4.1.4-7.2 4-6.8 8.2.4 4.1 4 7.2 8.2 6.8l13.6-1.3c4.3-.4 8.5.5 12.2 2.6l46.8 26.3c1.5 1 3.2 1.4 5 1.2l16.9-2.1L411 248.8l4.3 34.9h-27c-1.8 0-3.5.6-4.9 1.8l-2.1 1.6-67.8-58.4c15.5-4.5 30.3-15.2 44.1-32.2 2.6-3.2 2.1-7.9-1.1-10.6-3.2-2.6-7.9-2.1-10.6 1.1-15.4 18.9-31.7 28.7-48.2 29-24.1.5-41.9-19.6-42-19.7-1.5-1.7-3.6-2.6-5.9-2.6-2.3.1-4.4 1.1-5.7 2.9l-20 26.4c-10.6 13.8-28.7 19-45 12.8l-2.2-.8c-1.9-.7-2.7-2.2-2.9-3s-.6-2.4.4-4.2l52.6-90.5c3.4-5.9 9.5-9.7 16.2-10.3l31.1-2.9c4.1-.4 7.2-4 6.8-8.2-.4-4.1-4-7.2-8.2-6.8l-31.1 2.9c-11.6 1.1-22 7.7-27.8 17.7l-52.6 90.5c-3 5.1-3.5 11.2-1.6 16.8s6.3 9.9 11.8 12l2.2.8c6.3 2.4 12.9 3.6 19.3 3.6 16.5 0 32.3-7.5 42.9-21.3l15-19.6c8.1 6.9 23.1 17.2 42.3 18.5l97.9 84.4c1.8 1.5 2.8 3.6 3 5.9s-.6 4.6-2.1 6.3l-3.8 4.4c-4.8 5.6-13.2 6.2-18.8 1.4-.3-.3-.6-.5-1-.7l-25.4-21.9c-3.1-2.7-7.9-2.4-10.6.8-2.7 3.1-2.4 7.9.8 10.6L354 340l-9.4 10.9c-2.9 3.4-7.3 5.1-11.7 4.5-2.6-.3-5.1-1.4-7.1-3.1l-.1-.1L302 332c-3.1-2.7-7.9-2.4-10.6.8-2.7 3.1-2.4 7.9.8 10.6l18.1 15.6-9.5 11c-2.9 3.4-7.3 5.1-11.7 4.5-4.1-.5-7.8 2.5-8.3 6.6s2.5 7.8 6.6 8.3c1.1.1 2.2.2 3.3.2 8.2 0 16-3.5 21.5-9.8l10.1-11.8c2.8 1.3 5.7 2.2 8.8 2.5 9.4 1.1 18.6-2.5 24.8-9.6l10.2-11.8c11.2 5.3 25.1 2.8 33.6-7.1l3.8-4.4c4.1-4.8 6.1-10.9 5.7-17.2-.5-6.3-3.4-12.1-8.2-16.2l-6.2-5.3h22.5c2.5 13 13.9 22.3 26.9 22.3 1.1 0 2.2-.1 3.4-.2l57.8-7.1c4.1-.7 7.1-4.4 6.5-8.5z"/><path class="st0" d="M464 251.2c-12.1 0-22 9.9-22 22s9.9 22 22 22 22-9.9 22-22-9.9-22-22-22zm0 29c-3.9 0-7-3.1-7-7s3.1-7 7-7 7 3.1 7 7-3.1 7-7 7zm-394.8-7c0-12.1-9.9-22-22-22s-22 9.9-22 22 9.9 22 22 22 22-9.8 22-22zm-29 0c0-3.9 3.1-7 7-7s7 3.1 7 7-3.1 7-7 7-7-3.1-7-7zm150.2-144.7c23.4 7.1 25.1 7.5 25.1 7.5l6.1-13.6-27.1-8.3m111.2-8l-39.2 3.6 1.2 15.3 38.9-3.9m-21.3 267.7l-24-12.4 5.1-9.8 22.7 7.8"/></svg>