<svg version="1.1" id="Слой_1" xmlns="http://www.w3.org/2000/svg" x="0" y="0" viewBox="0 0 200 230.6" xml:space="preserve"><path d="M153.1 104.4c-1-12.8-6.5-24.8-15.5-34-9.9-10-23.5-15.6-37.6-15.5-1.4 0-2.8.1-4.3.2-12.5 1-24.2 6.3-33.1 15-9 8.6-14.6 20.3-15.6 32.7-1.4 17.6 4.7 29.5 9.9 36.6.7.9 1.4 1.8 2.3 2.9 3.2 3.9 6.8 8.2 7.6 13.3.4 3 .5 6 .4 8.9-.1 4.5-.1 8.9 1.7 12.1 1.4 2.7 4.3 4.3 6.8 5.7.2.1.3.2.5.3.1 2.4 0 5.5-.1 8.6-.3 12-.6 25.6 6.9 28.2.5 1.7 1.3 3.2 2.4 4.5.7.6 1.4 1 2.3 1.3 1 .4 2 .9 2.9 1.5.7.5 1.3 1 1.9 1.6 1 1.2 2.4 1.9 4 2.1.7.1 1.5.1 2.3.1 2.6.1 5.2-.6 7.5-1.9.4-.3.8-.7 1.1-1.1.3-.3.5-.7.8-.8.8-.5 1.5-.9 2.4-1.2 1.1-.4 2.1-.9 2.9-1.7.6-.8 1.1-1.7 1.3-2.7.2-.6.4-1.1.7-1.7.5-.5 1.1-1 1.7-1.4.8-.5 1.5-1.1 2.1-1.7l.2-.2c1.2-1.1 2.2-2.5 2.8-4.1 1.1-3.9.8-10.4.5-16.6-.3-4.1-.4-8.3-.1-12.4.8-.7 1.8-1.2 2.8-1.7 1.5-.6 2.9-1.5 4-2.8 3-3.5 2.9-7.9 2.9-12.8-.2-3.5.1-6.9.8-10.3.8-3.3 2.2-6.5 4.1-9.4.9-1.3 1.9-2.6 3.1-3.7 1.4-1.5 2.7-3.1 3.9-4.8 5-7.4 8-16.1 8.8-25 .2-2.5.3-5.3 0-8.1zm-63.1-.5c3.8-1.1 7.7-1.7 11.6-1.7 2.7 0 5.4.3 8.1.9-5.1 11.1-8.3 44.9-9.8 57.9-1.7-14.3-5-46.5-9.9-57.1zm46 29.5c-.5.6-.9 1.1-1.3 1.8-4.3 5.6-8.3 10.9-10.2 18.5-.5 2.4-2.6 5.3-2.5 8.4.2 4 .3 8.1-1.1 10.3-1.7 2.7-3.7 2.8-8.7 3.1-2.2.1-6.3.1-8.6.5.6-20.2 3.8-57 10.3-71 .9.3 1.8.8 2.5 1.4 1.1 1 2.4 1.6 3.9 1.8.5 0 1-.1 1.4-.2.4-.1.6-.4.8-.7.2-.3.1-.7-.1-1-4.4-6.6-13.1-8-19.6-8-7.4 0-14.7 1.5-21.5 4.4l-.3.2c-1.6.7-5 2.2-3.7 4.9.2.5.7.8 1.2.7 1.8-.3 3.6-.9 5.3-1.8.7-.4 1.4-.7 2.1-1 7 15 10.8 51.4 10.8 70.8-2.1-.4-4.3-.6-6.4-.6-5.3-.1-12.9-.3-15-2.6-1.7-1.9-1.4-6.3-1.3-10.2.2-2.1.2-4.2 0-6.3-.7-7.7-3.6-15.1-8.4-21.2l-.9-1.1c-5.2-6.9-8.2-15.3-8.7-23.9-.9-12.2 3.3-23.9 11.5-32.6 8.2-8.8 19.7-13.8 31.8-13.8 1.3 0 2.6.1 3.9.2 23.4 2.1 39.4 18.2 40.9 40.9.9 10-2 20.1-8.1 28.1z" fill="#fff"/><path d="M.3 64.2l32 29m167.3-29l-32 29M99.7 0l.3 40.3" fill="none" stroke="#fff" stroke-miterlimit="10"/></svg>