<svg version="1.1" id="Capa_1" xmlns="http://www.w3.org/2000/svg" x="0" y="0" viewBox="0 0 512 512" xml:space="preserve"><path d="M173.4 414.2h-1.1v-17.6c0-8.5-7-15.5-15.5-15.5h-1.1v-71.2c0-8.7-2.9-17.4-8.1-24.4l-25-33.3v-90.9c0-15.3-12.2-28.2-27.2-28.7-5-.2-9.9 1-14.2 3.3V124c0-15.3-12.2-28.2-27.2-28.7-7.7-.3-15.1 2.5-20.6 7.9-5.6 5.4-8.6 12.6-8.6 20.3v161.3c0 9.2 3.2 18.2 8.9 25.4l18.6 23.3c3.6 4.5 5.6 10.2 5.6 16V381h-1.1c-8.5 0-15.5 7-15.5 15.5v17.6h-1.1c-8.5 0-15.5 7-15.5 15.5v66.8c0 8.5 7 15.5 15.5 15.5h133.1c8.5 0 15.5-7 15.5-15.5v-66.8c.1-8.5-6.8-15.4-15.4-15.4zm-88.1-263c2.6-2.5 6-3.8 9.7-3.7 7 .2 12.7 6.4 12.7 13.7v70.9l-6.9-9.2c-4.8-6.5-12-10.3-19.5-11.3v-50.9c0-3.6 1.4-7 4-9.5zM64.1 324.1l-18.6-23.3c-3.6-4.5-5.6-10.2-5.6-16V123.5c0-3.6 1.4-7 4-9.5s6-3.8 9.7-3.7c7 .2 12.7 6.4 12.7 13.7v89.8c-1.5.7-3 1.5-4.5 2.5-6.3 4.4-10.5 11.1-11.8 18.7-1.2 7.6.6 15.2 5.3 21.4l38.9 51.9c2.5 3.3 7.2 4 10.5 1.5s4-7.2 1.5-10.5l-38.9-51.9c-2.2-2.9-3-6.5-2.5-10 .6-3.6 2.5-6.7 5.5-8.7 5.8-4 14-2.5 18.4 3.3l46.9 62.6c3.3 4.4 5.1 9.9 5.1 15.4v71H73v-31.6c0-9.2-3.2-18.2-8.9-25.3zm-7.7 72.4c0-.3.2-.5.5-.5h100c.3 0 .5.2.5.5v17.6h-101v-17.6zm117.5 100c0 .3-.2.5-.5.5H40.3c-.3 0-.5-.2-.5-.5v-66.8c0-.3.2-.5.5-.5h133.2c.3 0 .5.2.5.5v66.8zM359.1 51.3l-100.6-44c-1.6-.7-3.4-.7-5 0l-100.6 44c-2.3 1-3.8 3.3-3.8 5.8v125.7c0 2.4 1.3 4.5 3.4 5.6l100.6 51.2c.9.5 1.9.7 2.9.7s1.9-.2 2.8-.7l100.6-50.5c2.1-1.1 3.5-3.2 3.5-5.6V57.1c0-2.5-1.5-4.8-3.8-5.8zM256 19.9L340.9 57 256 94.2l-22.1-9.7 33.6-14.7c3.2-1.4 4.6-5.1 3.2-8.3-.6-1.4-1.8-2.6-3.2-3.2l-27-11.8c-1.6-.7-3.4-.7-5 0l-44.2 19.3-20.2-8.8L256 19.9zm-56.6 63.3l12.6 5.5v27.4l-12.6-6.3V83.2zm7.6-10.4l31-13.6 11.3 4.9-31 13.6-11.3-4.9zm-45.3-6.1l25.1 11v36c0 2.4 1.3 4.6 3.5 5.6l25.1 12.6c3.1 1.6 6.9.3 8.4-2.8.4-.9.7-1.8.7-2.8V94.2l25.1 11v118.6l-88-44.8V66.7zm100.6 157.1V105.2l88-38.5v112.9l-88 44.2zm75.6 190.4c-8.5 0-15.5 7-15.5 15.5v66.8c0 8.5 7 15.5 15.5 15.5H471c8.5 0 15.5-7 15.5-15.5v-66.8c0-8.5-7-15.5-15.5-15.5h-1.1v-17.6c0-8.5-7-15.5-15.5-15.5h-1.1v-31.6c0-5.8 2-11.5 5.6-16l18.6-23.3c5.7-7.2 8.9-16.2 8.9-25.4V123.5c0-7.7-3.1-14.9-8.6-20.3-5.6-5.4-12.9-8.2-20.6-7.9-15 .5-27.2 13.4-27.2 28.7v11.8c-4.3-2.3-9.2-3.4-14.2-3.3-15 .5-27.2 13.4-27.2 28.7v90.9l-25 33.3c-5.2 7-8.1 15.6-8.1 24.4V381h-1.1c-8.5 0-15.5 7-15.5 15.5v17.6l-1 .1zm92.2-253.5v50.9c-7.5 1-14.7 4.8-19.5 11.3l-6.9 9.2v-70.9c0-7.3 5.7-13.4 12.7-13.7 3.6-.1 7.1 1.2 9.7 3.7 2.5 2.5 4 5.9 4 9.5zm8.2 188.7V381h-67.8v-71.2c0-5.5 1.8-11 5.1-15.4l46.9-62.6c4.4-5.8 12.6-7.3 18.4-3.3 3 2.1 4.9 5.2 5.5 8.7.6 3.6-.3 7.1-2.5 10L405 299.1c-2.5 3.3-1.8 8 1.5 10.5s8 1.8 10.5-1.5l38.9-51.9c4.6-6.2 6.5-13.8 5.3-21.4-1.2-7.6-5.4-14.3-11.8-18.7-1.4-1-2.9-1.8-4.5-2.5V124c0-7.3 5.7-13.4 12.7-13.7 3.6-.1 7.1 1.2 9.7 3.7 2.6 2.5 4 5.9 4 9.5v161.3c0 5.8-2 11.5-5.6 16l-18.6 23.3c-5.6 7.1-8.8 16.1-8.8 25.3zm16.6 64.8h-101v-17.6c0-.3.2-.5.5-.5h100c.3 0 .5.2.5.5v17.6zm-117.5 15.5c0-.3.2-.5.5-.5h133.2c.3 0 .5.2.5.5v66.8c0 .3-.2.5-.5.5H337.9c-.3 0-.5-.2-.5-.5v-66.8z" fill="#fff"/></svg>