<svg version="1.1" id="Слой_1" xmlns="http://www.w3.org/2000/svg" x="0" y="0" viewBox="0 0 512 512" xml:space="preserve"><style>.st0{fill:#fff}</style><g id="Clipboard-Management-Project-Setting-List"><path class="st0" d="M440 456c0 13.3-10.7 24-24 24H168v16h248c22.1 0 40-17.9 40-40V304h-16v152zM120 120c0-13.3 10.7-24 24-24h43.4c-2.2 5-3.4 10.5-3.4 16h-32c-8.8 0-16 7.2-16 16v128h16V128h32v24c0 4.4 3.6 8 8 8h176c4.4 0 8-3.6 8-8v-24h32v48h16v-48c0-8.8-7.2-16-16-16h-32c0-5.5-1.2-11-3.4-16H416c13.3 0 24 10.7 24 24v40h16v-40c0-22.1-17.9-40-40-40h-56.2c-6.8-5.2-15.2-8-23.8-8h-16V56c0-22.1-17.9-40-40-40s-40 17.9-40 40v16h-16c-8.6 0-16.9 2.8-23.8 8H144c-22.1 0-40 17.9-40 40v136h16V120zm80-8c0-13.3 10.7-24 24-24h24c4.4 0 8-3.6 8-8V56c0-13.3 10.7-24 24-24s24 10.7 24 24v24c0 4.4 3.6 8 8 8h24c13.3 0 24 10.7 24 24v8H200v-8zm0 24h160v8H200v-8z"/><path class="st0" d="M240 464h168c8.8 0 16-7.2 16-16V336h-16v48h-40c-13.3 0-24 10.7-24 24v40H240v16zm168-16h-36.7l36.7-36.7V448zm-48-40c0-4.4 3.6-8 8-8h28.7L360 436.7V408zM272 48h16v16h-16V48z"/><path class="st0" d="M487 185c-15.6-15.6-40.9-15.6-56.6 0L289 326.5c-1.1 1.1-1.9 2.5-2.2 4.1l-5.2 25.9-15.3 15.3c-9.4 9.4-9.4 24.6 0 33.9s24.6 9.4 33.9 0l15.3-15.3 25.9-5.2c1.5-.3 3-1.1 4.1-2.2L487 241.6c15.5-15.6 15.5-40.9 0-56.6zm-79.2 45.3l11.3 11.3-96.2 96.2-11.3-11.3 96.2-96.2zM289 394.3c-3.1 3.1-8.2 3.1-11.3 0s-3.1-8.2 0-11.3l11.3-11.3 11.3 11.3-11.3 11.3zm25.2-20l-16.6-16.6 3.8-18.9 31.6 31.6-18.8 3.9zm31.3-13.9l-11.3-11.3 96.2-96.2 11.3 11.3-96.2 96.2zM453 252.9L419.1 219l5.7-5.7 33.9 33.9-5.7 5.7zm22.6-22.6L470 236l-34-34 5.7-5.7c9.4-9.4 24.6-9.4 33.9 0s9.4 24.6 0 34zM185.4 475.2c3.2 2.4 7.6 2.1 10.5-.7l22.6-22.6c2.8-2.8 3.1-7.3.7-10.5l-13-17.3c2.2-4.2 4-8.6 5.4-13.1l21.5-3.1c3.9-.6 6.9-3.9 6.9-7.9v-32c0-4-2.9-7.4-6.9-7.9l-21.5-3.1c-1.5-4.5-3.3-8.9-5.4-13.1l13-17.3c2.4-3.2 2.1-7.6-.7-10.5l-22.6-22.6c-2.8-2.8-7.3-3.1-10.5-.7l-17.3 13c-4.2-2.2-8.6-4-13.1-5.4l-3.1-21.5c-.6-3.9-3.9-6.9-7.9-6.9h-32c-4 0-7.4 2.9-7.9 6.9l-3.1 21.5c-4.5 1.5-8.9 3.3-13.1 5.4l-17.3-13c-3.2-2.4-7.6-2.1-10.5.7l-22.6 22.6c-2.8 2.8-3.1 7.3-.7 10.5l13 17.3c-2.2 4.2-4 8.6-5.4 13.1l-21.5 3.1c-3.9.6-6.9 3.9-6.9 7.9v32c0 4 2.9 7.4 6.9 7.9l21.5 3.1c1.5 4.5 3.3 8.9 5.4 13.1l-13 17.3c-2.4 3.2-2.1 7.6.7 10.5l22.6 22.6c2.8 2.8 7.3 3.1 10.5.7l17.3-13c4.2 2.2 8.6 4 13.1 5.4l3.1 21.5c.6 3.9 3.9 6.9 7.9 6.9h32c4 0 7.4-2.9 7.9-6.9l3.1-21.5c4.5-1.5 8.9-3.3 13.1-5.4l17.3 13zm-39.6-21.6c-3.1.8-5.5 3.4-5.9 6.6l-2.8 19.7H119l-2.8-19.7c-.5-3.2-2.8-5.8-5.9-6.6-6.6-1.7-13-4.3-18.8-7.8-2.8-1.7-6.3-1.5-8.9.5l-15.9 11.9-12.8-12.8 11.9-15.9c1.9-2.6 2.1-6.1.5-8.9-3.5-5.9-6.1-12.2-7.8-18.8-.8-3.1-3.4-5.5-6.6-5.9L32 393.1V375l19.7-2.8c3.2-.5 5.8-2.8 6.6-5.9 1.7-6.6 4.3-13 7.8-18.8 1.7-2.8 1.5-6.3-.5-8.9l-11.9-15.9 12.8-12.8 15.9 11.9c2.6 1.9 6.1 2.1 8.9.5 5.9-3.5 12.2-6.1 18.8-7.8 3.1-.8 5.5-3.4 5.9-6.6l2.8-19.7h18.1l2.8 19.7c.5 3.2 2.8 5.8 5.9 6.6 6.6 1.7 13 4.3 18.8 7.8 2.8 1.7 6.3 1.5 8.9-.5l15.9-11.9 12.8 12.8-11.9 15.9c-1.9 2.6-2.1 6.1-.5 8.9 3.5 5.9 6.1 12.2 7.8 18.8.8 3.1 3.4 5.5 6.6 5.9l19.7 2.8v18.1l-19.7 2.8c-3.2.5-5.8 2.8-6.6 5.9-1.7 6.6-4.3 13-7.8 18.8-1.7 2.8-1.5 6.3.5 8.9l11.9 15.9-12.8 12.8-15.9-11.9c-2.6-1.9-6.1-2.1-8.9-.5-5.6 3.6-11.9 6.2-18.6 7.8z"/><path class="st0" d="M128 336c-26.5 0-48 21.5-48 48s21.5 48 48 48 48-21.5 48-48-21.5-48-48-48zm0 80c-17.7 0-32-14.3-32-32s14.3-32 32-32 32 14.3 32 32-14.3 32-32 32zm-8-112h16v16h-16v-16zm-54.3 29.1L77 321.8l11.3 11.3L77 344.4l-11.3-11.3zM48 376h16v16H48v-16zm17.7 58.9L77 423.6l11.3 11.3L77 446.2l-11.3-11.3zM120 448h16v16h-16v-16zm47.5-13.1l11.3-11.3 11.3 11.3-11.3 11.3-11.3-11.3zM192 376h16v16h-16v-16zm-24.5-42.9l11.3-11.3 11.3 11.3-11.3 11.3-11.3-11.3zM224 208c2 0 4 .3 6 .8l4-15.5c-3.3-.8-6.6-1.3-10-1.3-22.1 0-40 17.9-40 40s17.9 40 40 40c18.2 0 34.2-12.3 38.7-30l-15.5-4c-3.3 12.8-16.4 20.6-29.2 17.2-12.8-3.3-20.6-16.4-17.2-29.2 2.7-10.6 12.3-18 23.2-18z"/><path class="st0" d="M218.3 234.3l40-40 11.3 11.3-40 40-11.3-11.3zM280 208h16v16h-16v-16zm32 0h32v16h-32v-16zm-32 32h48v16h-48v-16z"/></g></svg>