<svg version="1.1" id="Capa_1" xmlns="http://www.w3.org/2000/svg" x="0" y="0" viewBox="0 0 512 512" xml:space="preserve"><style>.st0{fill:#fff}</style><path class="st0" d="M444.5 17.1h-25.6V8.5c0-4.7-3.8-8.5-8.5-8.5s-8.5 3.8-8.5 8.5V17H299.5V8.5c0-4.7-3.8-8.5-8.5-8.5s-8.5 3.8-8.5 8.5V17H180V8.5c0-4.7-3.8-8.5-8.5-8.5S163 3.8 163 8.5V17h-25.6c-14.1 0-25.6 11.5-25.6 25.6v162.1c0 4.7 3.8 8.5 8.5 8.5s8.5-3.8 8.5-8.5v-162c0-4.7 3.8-8.5 8.5-8.5h25.6v18.6C151.1 57 144.1 69 146.2 81.3s12.8 21.3 25.2 21.3 23.1-9 25.2-21.3-4.9-24.3-16.7-28.5V34.1h102.4v18.6c-11.8 4.2-18.8 16.2-16.7 28.5s12.8 21.3 25.2 21.3 23.1-9 25.2-21.3-4.9-24.3-16.7-28.5V34.1h102.4v18.6c-11.8 4.2-18.8 16.2-16.7 28.5s12.8 21.3 25.2 21.3 23.1-9 25.2-21.3-4.9-24.3-16.7-28.5V34.1h25.6c4.7 0 8.5 3.8 8.5 8.5v443.7c0 4.7-3.8 8.5-8.5 8.5h-307c-4.7 0-8.5-3.8-8.5-8.5V366.9c0-4.7-3.8-8.5-8.5-8.5s-8.5 3.8-8.5 8.5v119.5c0 14.1 11.5 25.6 25.6 25.6h307.2c14.1 0 25.6-11.5 25.6-25.6V42.7c-.1-14.2-11.5-25.6-25.7-25.6zm-273 68.2c-4.7 0-8.5-3.8-8.5-8.5s3.8-8.5 8.5-8.5 8.5 3.8 8.5 8.5-3.8 8.5-8.5 8.5zm119.4 0c-4.7 0-8.5-3.8-8.5-8.5s3.8-8.5 8.5-8.5 8.5 3.8 8.5 8.5-3.8 8.5-8.5 8.5zm119.5 0c-4.7 0-8.5-3.8-8.5-8.5s3.8-8.5 8.5-8.5 8.5 3.8 8.5 8.5-3.8 8.5-8.5 8.5z"/><path class="st0" d="M171.5 179.2h.6c2.5-.2 4.7-1.4 6.2-3.4l25.6-34.1c1.8-2.4 2.2-5.7 1-8.5-1.2-2.8-3.8-4.8-6.8-5.1-3-.4-6 .9-7.8 3.4l-19.7 26.3-10.1-10.1c-3.3-3.3-8.7-3.3-12 .1s-3.3 8.7-.1 12l17.1 17.1c1.5 1.4 3.7 2.3 6 2.3zm-23.1 74.3l17.1 17.1c1.6 1.6 3.8 2.5 6 2.5h.6c2.5-.2 4.7-1.4 6.2-3.4l25.6-34.1c2.8-3.8 2.1-9.1-1.7-11.9s-9.1-2.1-11.9 1.7l-19.7 26.3-10.1-10.1c-3.3-3.3-8.7-3.3-12 .1-3.4 3.1-3.4 8.5-.1 11.8zm82.8-82.8h196.3c4.7 0 8.5-3.8 8.5-8.5s-3.8-8.5-8.5-8.5H231.2c-4.7 0-8.5 3.8-8.5 8.5s3.8 8.5 8.5 8.5zm0 93.8h196.3c4.7 0 8.5-3.8 8.5-8.5s-3.8-8.5-8.5-8.5H231.2c-4.7 0-8.5 3.8-8.5 8.5s3.8 8.5 8.5 8.5zm0 93.9h196.3c4.7 0 8.5-3.8 8.5-8.5s-3.8-8.5-8.5-8.5H231.2c-4.7 0-8.5 3.8-8.5 8.5s3.8 8.5 8.5 8.5zm0 93.9h196.3c4.7 0 8.5-3.8 8.5-8.5s-3.8-8.5-8.5-8.5H231.2c-4.7 0-8.5 3.8-8.5 8.5s3.8 8.5 8.5 8.5zm-63.5-102.6l6.2 6.2c2.1 2.2 5.3 3 8.3 2.3 3-.8 5.3-3.1 6.1-6.1.8-3-.1-6.1-2.3-8.3l-6.1-6.1c-.2-16.5-6.5-32.4-17.7-44.6l-74.1-80.3c-4.6-4.9-10.8-7.9-17.5-8.4-.5 0-1-.2-1.5-.2-5.4 0-10.6 1.5-15.2 4.4-1.5 1-2.9 2.1-4.2 3.4-10.1 10.2-10.5 26.5-.7 37l12.8 13.9 60.5 65.5c11.8 12.7 28.1 20.3 45.4 21.3zM61.5 237.4c-2.6-2.8-3.3-6.8-1.7-10.3s5-5.7 8.7-5.7h.2c2.6 0 5.1 1.2 6.8 3.1l6.2 6.8-13.5 13.5-6.7-7.4zm31.9 6.3l56.3 61c7 7.5 11.5 17.1 12.8 27.3-10.6-2-20.4-7.3-27.7-15.2l-54.9-59.5 13.5-13.6z"/></svg>